<?xml version="1.0" encoding="UTF-8" standalone="no"?><!DOCTYPE svg PUBLIC "-//W3C//DTD SVG 1.1//EN" "http://www.w3.org/Graphics/SVG/1.1/DTD/svg11.dtd"><svg width="100%" height="100%" viewBox="0 0 3508 2481" version="1.1" xmlns="http://www.w3.org/2000/svg" xmlns:xlink="http://www.w3.org/1999/xlink" xml:space="preserve" xmlns:serif="http://www.serif.com/" style="fill-rule:evenodd;clip-rule:evenodd;stroke-linecap:round;stroke-linejoin:round;stroke-miterlimit:1.5;"><rect x="0" y="0" width="3507.87" height="2480.32" style="fill:#fff;"/><path d="M3507.87,413.738l-59.055,0l-0,-354.33" style="fill:#fff;stroke:#000;stroke-width:2.08px;"/><g transform="matrix(58.3333,0,0,58.3333,3497.8,257.451)"></g><text x="3458.89px" y="257.451px" style="font-family:'ArialMT', 'Arial';font-size:58.333px;">A</text><path d="M3025.43,59.231l423.393,0l-423.393,0Z" style="fill:#fff;stroke:#000;stroke-width:2.08px;"/><path d="M2602.03,0.176l423.393,0l-0,59.055l-423.393,0l-0,-59.055Z" style="fill:#fff;stroke:#000;stroke-width:2.08px;"/><path d="M2178.64,0.176l423.393,0l-0,59.055l-423.393,0l-0,-59.055Z" style="fill:#fff;stroke:#000;stroke-width:2.08px;"/><path d="M1753.94,0.176l424.703,0l-0,59.055l-424.703,0l0,-59.055Z" style="fill:#fff;stroke:#000;stroke-width:2.08px;"/><path d="M1331.85,0.176l423.393,0l0,59.055l-423.393,0l0,-59.055Z" style="fill:#fff;stroke:#000;stroke-width:2.08px;"/><path d="M908.461,0.176l423.393,0l0,59.055l-423.393,0l0,-59.055Z" style="fill:#fff;stroke:#000;stroke-width:2.08px;"/><path d="M485.068,0.176l423.393,0l0,59.055l-423.393,0l0,-59.055Z" style="fill:#fff;stroke:#000;stroke-width:2.08px;"/><path d="M59.055,59.408l0,354.33l-59.055,0m485.068,-413.562l0,59.055l-426.013,0.177" style="fill:#fff;stroke:#000;stroke-width:2.08px;"/><rect x="3448.82" y="413.738" width="59.055" height="354.331" style="fill:#fff;stroke:#000;stroke-width:2.08px;"/><g transform="matrix(58.3333,0,0,58.3333,3497.8,611.782)"></g><text x="3458.89px" y="611.782px" style="font-family:'ArialMT', 'Arial';font-size:58.333px;">B</text><rect x="3448.82" y="768.069" width="59.055" height="354.331" style="fill:#fff;stroke:#000;stroke-width:2.08px;"/><g transform="matrix(58.3333,0,0,58.3333,3501.02,966.113)"></g><text x="3458.89px" y="966.113px" style="font-family:'ArialMT', 'Arial';font-size:58.333px;">C</text><rect x="3448.82" y="1122.4" width="59.055" height="354.331" style="fill:#fff;stroke:#000;stroke-width:2.08px;"/><g transform="matrix(58.3333,0,0,58.3333,3501.02,1320.44)"></g><text x="3458.89px" y="1320.44px" style="font-family:'ArialMT', 'Arial';font-size:58.333px;">D</text><rect x="3448.82" y="1476.73" width="59.055" height="354.331" style="fill:#fff;stroke:#000;stroke-width:2.08px;"/><g transform="matrix(58.3333,0,0,58.3333,3497.8,1674.77)"></g><text x="3458.89px" y="1674.77px" style="font-family:'ArialMT', 'Arial';font-size:58.333px;">E</text><rect x="3448.82" y="1831.06" width="59.055" height="354.331" style="fill:#fff;stroke:#000;stroke-width:2.08px;"/><g transform="matrix(58.3333,0,0,58.3333,3494.52,2029.1)"></g><text x="3458.89px" y="2029.11px" style="font-family:'ArialMT', 'Arial';font-size:58.333px;">F</text><g transform="matrix(58.3333,0,0,58.3333,48.9815,257.451)"></g><text x="10.074px" y="257.451px" style="font-family:'ArialMT', 'Arial';font-size:58.333px;">A</text><g transform="matrix(58.3333,0,0,58.3333,285.05,50.4057)"></g><text x="252.608px" y="50.406px" style="font-family:'ArialMT', 'Arial';font-size:58.333px;">1</text><g transform="matrix(58.3333,0,0,58.3333,708.784,50.8437)"></g><text x="676.342px" y="50.844px" style="font-family:'ArialMT', 'Arial';font-size:58.333px;">2</text><g transform="matrix(58.3333,0,0,58.3333,1140.97,50.4057)"></g><text x="1108.52px" y="50.406px" style="font-family:'ArialMT', 'Arial';font-size:58.333px;">3</text><g transform="matrix(58.3333,0,0,58.3333,1558.5,50.1031)"></g><text x="1526.05px" y="50.103px" style="font-family:'ArialMT', 'Arial';font-size:58.333px;">4</text><rect x="0" y="413.738" width="59.055" height="354.331" style="fill:#fff;stroke:#000;stroke-width:2.08px;"/><g transform="matrix(58.3333,0,0,58.3333,48.9815,611.782)"></g><text x="10.074px" y="611.782px" style="font-family:'ArialMT', 'Arial';font-size:58.333px;">B</text><rect x="0" y="768.069" width="59.055" height="354.331" style="fill:#fff;stroke:#000;stroke-width:2.08px;"/><g transform="matrix(58.3333,0,0,58.3333,52.2001,966.113)"></g><text x="10.074px" y="966.113px" style="font-family:'ArialMT', 'Arial';font-size:58.333px;">C</text><rect x="0" y="1122.4" width="59.055" height="354.331" style="fill:#fff;stroke:#000;stroke-width:2.08px;"/><g transform="matrix(58.3333,0,0,58.3333,52.2001,1320.44)"></g><text x="10.074px" y="1320.44px" style="font-family:'ArialMT', 'Arial';font-size:58.333px;">D</text><rect x="0" y="1476.73" width="59.055" height="354.331" style="fill:#fff;stroke:#000;stroke-width:2.08px;"/><g transform="matrix(58.3333,0,0,58.3333,48.9815,1674.77)"></g><text x="10.074px" y="1674.77px" style="font-family:'ArialMT', 'Arial';font-size:58.333px;">E</text><rect x="0" y="1831.06" width="59.055" height="354.331" style="fill:#fff;stroke:#000;stroke-width:2.08px;"/><rect x="0" y="2185.39" width="3507.87" height="294.923" style="fill:#fff;stroke:#000;stroke-width:2.08px;"/><rect x="0" y="2185.39" width="3507.87" height="294.923" style="fill:#fff;"/><path d="M3507.87,2185.39l0,294.923l-3507.87,-0l0,-294.923l3507.87,-0Zm-6.25,6.25l-3495.37,-0l0,282.423l3495.37,-0l0,-282.423Z"/><g transform="matrix(58.3333,0,0,58.3333,45.7059,2029.1)"></g><text x="10.074px" y="2029.11px" style="font-family:'ArialMT', 'Arial';font-size:58.333px;">F</text><g transform="matrix(58.3333,0,0,58.3333,1984.51,49.3625)"></g><text x="1952.07px" y="49.363px" style="font-family:'ArialMT', 'Arial';font-size:58.333px;">5</text><g transform="matrix(58.3333,0,0,58.3333,2396.54,49.3625)"></g><text x="2364.1px" y="49.363px" style="font-family:'ArialMT', 'Arial';font-size:58.333px;">6</text><g transform="matrix(58.3333,0,0,58.3333,2828.88,50.3113)"></g><text x="2796.44px" y="50.311px" style="font-family:'ArialMT', 'Arial';font-size:58.333px;">7</text><g transform="matrix(58.3333,0,0,58.3333,3251.98,50.3113)"></g><text x="3219.53px" y="50.311px" style="font-family:'ArialMT', 'Arial';font-size:58.333px;">8</text><circle cx="1442.59" cy="246.798" r="11.811" style="fill:#fff;stroke:#000;stroke-width:8.33px;"/><circle cx="957.19" cy="1251.97" r="11.811" style="fill:#fff;stroke:#000;stroke-width:4.17px;"/><circle cx="837.222" cy="1251.97" r="11.811" style="fill:#fff;stroke:#000;stroke-width:4.17px;"/><circle cx="1762.69" cy="488.654" r="11.811" style="stroke:#000;stroke-width:8.33px;stroke-linecap:square;stroke-linejoin:miter;"/><circle cx="1762.69" cy="1894.3" r="11.811" style="stroke:#000;stroke-width:8.33px;stroke-linecap:square;stroke-linejoin:miter;"/><circle cx="2123.01" cy="246.798" r="11.811" style="fill:#fff;stroke:#000;stroke-width:8.33px;"/><path d="M1454.4,246.798l656.806,-0" style="fill:none;stroke:#000;stroke-width:8.33px;stroke-linecap:butt;stroke-linejoin:miter;"/><g transform="matrix(50,0,0,50,1382.01,262.533)"></g><text x="1327.03px" y="262.533px" style="font-family:'Consolas';font-size:50px;">5V</text><path d="M1762.69,246.798l0,1807.74" style="fill:none;stroke:#000;stroke-width:4.17px;stroke-linecap:butt;stroke-linejoin:miter;"/><path d="M1762.69,488.654l809.539,-0l0,1405.64l-809.539,-0" style="fill:none;stroke:#000;stroke-width:4.17px;stroke-linecap:butt;stroke-linejoin:miter;"/><g><circle cx="1763.38" cy="1544.16" r="88.583" style="fill:#fff;"/><path d="M1763.38,1455.58c48.89,0 88.583,39.693 88.583,88.583c0,48.89 -39.693,88.583 -88.583,88.583c-48.89,-0 -88.582,-39.693 -88.582,-88.583c-0,-48.89 39.692,-88.583 88.582,-88.583Zm0,4.167c-46.59,-0 -84.416,37.826 -84.416,84.416c0,46.59 37.826,84.416 84.416,84.416c46.591,0 84.416,-37.826 84.416,-84.416c0,-46.59 -37.825,-84.416 -84.416,-84.416Z"/><path d="M1707.35,1490.06l-0,102.518" style="fill:none;stroke:#000;stroke-width:8.33px;stroke-linecap:square;stroke-linejoin:miter;"/><path d="M1763.38,1455.58l-56.034,66.901" style="fill:none;stroke:#000;stroke-width:8.33px;stroke-linecap:butt;stroke-linejoin:miter;"/><path d="M1707.35,1565.84l56.034,66.901" style="fill:none;stroke:#000;stroke-width:8.33px;stroke-linecap:butt;stroke-linejoin:miter;"/><path d="M1716.18,1605.74l28.723,-24.601l0.852,30.774l-29.575,-6.173Z"/><path d="M1707.35,1544.16l-32.548,-0" style="fill:none;stroke:#000;stroke-width:8.33px;stroke-linecap:butt;stroke-linejoin:miter;"/></g><g><circle cx="2572.23" cy="1544.16" r="88.583" style="fill:#fff;"/><path d="M2572.23,1455.58c48.89,0 88.583,39.693 88.583,88.583c-0,48.89 -39.693,88.583 -88.583,88.583c-48.89,-0 -88.583,-39.693 -88.583,-88.583c0,-48.89 39.693,-88.583 88.583,-88.583Zm0,4.167c-46.59,-0 -84.416,37.826 -84.416,84.416c0,46.59 37.826,84.416 84.416,84.416c46.591,0 84.416,-37.826 84.416,-84.416c0,-46.59 -37.825,-84.416 -84.416,-84.416Z"/><path d="M2516.19,1490.06l0,102.518" style="fill:none;stroke:#000;stroke-width:8.33px;stroke-linecap:square;stroke-linejoin:miter;"/><path d="M2572.23,1455.58l-56.035,66.901" style="fill:none;stroke:#000;stroke-width:8.33px;stroke-linecap:butt;stroke-linejoin:miter;"/><path d="M2516.19,1565.84l56.035,66.901" style="fill:none;stroke:#000;stroke-width:8.33px;stroke-linecap:butt;stroke-linejoin:miter;"/><path d="M2525.02,1605.74l28.722,-24.601l0.853,30.774l-29.575,-6.173Z"/><path d="M2516.19,1544.16l-32.548,-0" style="fill:none;stroke:#000;stroke-width:8.33px;stroke-linecap:butt;stroke-linejoin:miter;"/></g><g transform="matrix(50,0,0,50,1914.98,1492.31)"></g><text x="1860px" y="1492.31px" style="font-family:'Consolas';font-size:50px;">Q1</text><g transform="matrix(50,0,0,50,2731.86,1492.31)"></g><text x="2676.88px" y="1492.31px" style="font-family:'Consolas';font-size:50px;">Q2</text><g transform="matrix(50,0,0,50,1653.17,1020.88)"></g><text x="1598.19px" y="1020.88px" style="font-family:'Consolas';font-size:50px;">D1</text><g transform="matrix(1,0,0,1,830.815,-259.786)"><text x="774.004px" y="904.182px" style="font-family:'Consolas';font-size:50px;">R1</text><g transform="matrix(50,0,0,50,856.475,962.727)"></g><text x="774.004px" y="962.727px" style="font-family:'Consolas';font-size:50px;">47立</text></g><g transform="matrix(1,0,0,1,253.194,532.544)"><text x="774.004px" y="904.182px" style="font-family:'Consolas';font-size:50px;">R2</text><g transform="matrix(50,0,0,50,883.965,962.727)"></g><text x="774.004px" y="962.727px" style="font-family:'Consolas';font-size:50px;">8K2立</text></g><g transform="matrix(1,0,0,1,521.12,320.437)"><text x="774.004px" y="904.182px" style="font-family:'Consolas';font-size:50px;">R4</text><g transform="matrix(50,0,0,50,883.965,962.727)"></g><text x="774.004px" y="962.727px" style="font-family:'Consolas';font-size:50px;">8K2立</text></g><g transform="matrix(1,0,0,1,423.568,-183.352)"><text x="774.004px" y="904.182px" style="font-family:'Consolas';font-size:50px;">A1</text><g transform="matrix(50,0,0,50,911.455,962.727)"></g><text x="774.004px" y="962.727px" style="font-family:'Consolas';font-size:50px;">ESP32</text></g><g transform="matrix(1,0,0,1,1654.06,-259.786)"><text x="774.004px" y="904.182px" style="font-family:'Consolas';font-size:50px;">R3</text><g transform="matrix(50,0,0,50,856.475,962.727)"></g><text x="774.004px" y="962.727px" style="font-family:'Consolas';font-size:50px;">47立</text></g><g transform="matrix(50,0,0,50,2485.58,1020.88)"></g><text x="2430.6px" y="1020.88px" style="font-family:'Consolas';font-size:50px;">D2</text><rect x="1733.1" y="596.194" width="59.171" height="122.893" style="fill:#fff;"/><path d="M1792.27,596.194l0,122.893l-59.17,0l-0,-122.893l59.17,0Zm-8.333,8.334l-42.504,-0l0,106.226l42.504,-0l-0,-106.226Z"/><rect x="2541.1" y="596.194" width="59.171" height="122.893" style="fill:#fff;"/><path d="M2600.27,596.194l0,122.893l-59.17,0l-0,-122.893l59.17,0Zm-8.333,8.334l-42.504,-0l0,106.226l42.504,-0l0,-106.226Z"/><path d="M1642.83,2054.54l239.724,0" style="fill:none;stroke:#000;stroke-width:12.5px;stroke-linecap:butt;stroke-linejoin:miter;"/><rect x="633.791" y="673.411" width="540.212" height="566.746" style="fill:#fff;"/><path d="M1174,673.411l0,566.746l-540.212,0l0,-566.746l540.212,0Zm-12.5,12.5l-515.212,0c0,0 0,541.746 0,541.746l515.212,0l0,-541.746Z"/><path d="M957.19,1263.78l-0,69.018l687.102,0l136.428,-61.087l61.766,61.087l375.799,0l0,211.364l264.409,-0" style="fill:none;stroke:#000;stroke-width:4.17px;stroke-linecap:butt;stroke-linejoin:miter;"/><path d="M1298.03,1303.65l122.892,-0l0,59.17l-122.892,0l-0,-59.17Z" style="fill:#fff;"/><path d="M1298.03,1303.65l122.892,-0l0,59.17l-122.892,0l-0,-59.17Zm8.333,8.333l-0,42.504l106.226,0l0,-42.504l-106.226,0Z"/><path d="M837.222,1263.78l-0,281.782l838.992,-0" style="fill:none;stroke:#000;stroke-width:4.17px;stroke-linecap:butt;stroke-linejoin:miter;"/><path d="M1028.25,1515.98l122.893,-0l-0,59.17l-122.893,0l-0,-59.17Z" style="fill:#fff;"/><path d="M1028.25,1515.98l122.893,-0l-0,59.17l-122.893,0l-0,-59.17Zm8.333,8.333l0,42.504l106.226,-0l0,-42.504l-106.226,-0Z"/><g><path d="M1694.69,946.137l135.994,0l-67.997,117.423l-67.997,-117.423Z" style="fill:#fff;"/><path d="M1694.69,946.137l135.994,0l-67.997,117.423l-67.997,-117.423Zm14.456,8.333c-0,0 53.541,92.461 53.541,92.461l53.541,-92.461l-107.082,0Z"/><path d="M1694.69,1063.56l135.994,0" style="fill:none;stroke:#000;stroke-width:8.33px;stroke-linecap:square;stroke-linejoin:miter;"/><path d="M1820.3,981.468l31.667,22.628" style="fill:none;stroke:#000;stroke-width:4.17px;stroke-linecap:butt;stroke-linejoin:miter;"/><path d="M1834.16,1007.21l17.71,-2.977l-3.228,-17.291" style="fill:none;stroke:#000;stroke-width:4.17px;stroke-linecap:square;stroke-linejoin:miter;"/><path d="M1818.32,1020.4l31.667,22.628" style="fill:none;stroke:#000;stroke-width:4.17px;stroke-linecap:butt;stroke-linejoin:miter;"/><path d="M1832.18,1046.14l17.71,-2.978l-3.228,-17.29" style="fill:none;stroke:#000;stroke-width:4.17px;stroke-linecap:square;stroke-linejoin:miter;"/></g><g><path d="M2502.69,946.137l135.994,0l-67.997,117.423l-67.997,-117.423Z" style="fill:#fff;"/><path d="M2502.69,946.137l135.994,0l-67.997,117.423l-67.997,-117.423Zm14.456,8.333c-0,0 53.541,92.461 53.541,92.461l53.541,-92.461l-107.082,0Z"/><path d="M2502.69,1063.56l135.994,0" style="fill:none;stroke:#000;stroke-width:8.33px;stroke-linecap:square;stroke-linejoin:miter;"/><path d="M2628.3,981.468l31.667,22.628" style="fill:none;stroke:#000;stroke-width:4.17px;stroke-linecap:butt;stroke-linejoin:miter;"/><path d="M2642.16,1007.21l17.71,-2.977l-3.228,-17.291" style="fill:none;stroke:#000;stroke-width:4.17px;stroke-linecap:square;stroke-linejoin:miter;"/><path d="M2626.33,1020.4l31.668,22.628" style="fill:none;stroke:#000;stroke-width:4.17px;stroke-linecap:butt;stroke-linejoin:miter;"/><path d="M2640.18,1046.14l17.711,-2.978l-3.229,-17.29" style="fill:none;stroke:#000;stroke-width:4.17px;stroke-linecap:square;stroke-linejoin:miter;"/></g><g transform="matrix(6.12323e-17,-1,1,6.12323e-17,-2747.09,1618.91)"><g transform="matrix(50,0,0,50,485.176,3596.12)"></g><text x="402.705px" y="3596.12px" style="font-family:'Consolas';font-size:50px;">PWM</text></g><g transform="matrix(6.12323e-17,-1,1,6.12323e-17,-2622.2,1743.79)"><g transform="matrix(50,0,0,50,610.065,3596.12)"></g><text x="527.594px" y="3596.12px" style="font-family:'Consolas';font-size:50px;">PWM</text></g><path d="M798.78,1099.82l191.134,-0" style="fill:none;stroke:#000;stroke-width:6.25px;stroke-linecap:butt;stroke-linejoin:miter;"/><g transform="matrix(50,0,0,50,949.193,1081.35)"></g><text x="839.232px" y="1081.35px" style="font-family:'Consolas';font-size:50px;">GPIO</text><g transform="matrix(83.3333,0,0,83.3333,578.416,229.606)"></g><text x="124.517px" y="229.606px" style="font-family:'ArialMT', 'Arial';font-size:83.333px;">LED Control</text><rect x="2477.21" y="2185.39" width="1030.66" height="294.923" style="fill:#fff;"/><path d="M3507.87,2185.39l0,294.923l-1030.66,-0l0,-294.923l1030.66,-0Zm-6.25,6.25l-1018.16,-0l0,282.423l1018.16,-0l0,-282.423Z"/><rect x="0" y="2185.39" width="1030.66" height="294.923" style="fill:#fff;"/><path d="M1030.66,2185.39l-0,294.923l-1030.66,-0l0,-294.923l1030.66,-0Zm-6.25,6.25l-1018.16,-0l-0,282.423l1018.16,-0l-0,-282.423Z"/><g transform="matrix(1,0,0,1,-262.702,434.986)"><text x="287.341px" y="1843.15px" style="font-family:'ArialMT', 'Arial';font-size:62.5px;">Kopplingsschema</text><g transform="matrix(62.5,0,0,62.5,527.057,1907.69)"></g><text x="287.341px" y="1907.69px" style="font-family:'ArialMT', 'Arial';font-size:62.5px;">Funktion</text></g><g transform="matrix(1,0,0,1,1198.8,451.284)"><text x="818.128px" y="1827.61px" style="font-family:'ArialMT', 'Arial';font-size:62.5px;">Chas <tspan x="977.949px 1019.64px " y="1827.61px 1827.61px ">Ac</tspan>ademy</text><text x="998.762px" y="1892.16px" style="font-family:'ArialMT', 'Arial';font-size:62.5px;">SUVX24</text><g transform="matrix(62.5,0,0,62.5,1238.48,1956.7)"></g><text x="1012.65px" y="1956.7px" style="font-family:'ArialMT', 'Arial';font-size:62.5px;">Grupp 6</text></g></svg>